# xmcd
#
# Track frame offsets:
#	150
#	18188
#	36007
#	56992
#	71662
#	88573
#	101958
#	119454
#	135861
#	136211
#	152478
#	169013
#	183779
#	200802
#	215627
#	231897
#	248940
#	261623
#	276876
#	296462
#	311941
#
# Disc length: 4335 seconds
#
# Revision: 4
# Processed by: cddbd v1.5.1PL0 Copyright (c) Steve Scherf et al.
# Submitted via: audiograbber 1.83.01
#
DISCID=3f10ed15
DTITLE=1998-04 Country Radio - 1998-04 Country Radio
DYEAR=1998
DGENRE=Country
TTITLE0=LeAnn Rimes - Commitment
TTITLE1=John Michael Montgomery - Love Working On You
TTITLE2=Tim McGraw - One Of These Days
TTITLE3=Lorrie Morgan - I'm Not That Easy To Forget
TTITLE4=Bryan White - Bad Day To Let You Go
TTITLE5=Lee Ann Womack - Buckaroo
TTITLE6=Sammy Kershaw - Matches
TTITLE7=Mark Chestnutt - I Might Even Quit Lovin' You
TTITLE8=Terri Clark - Artist Drop
TTITLE9=Terri Clark - Now That I Found You
TTITLE10=Sawyer Brown - Small Talk
TTITLE11=Neil McCoy - Party On
TTITLE12=Chely Wright - I Already Do
TTITLE13=Keith Perry - Don't Lie In My Arms Tonight
TTITLE14=Jason Sellers - I'm Your Man
TTITLE15=Tracy Byrd - I'm From The Country
TTITLE16=Blake and Brian - Amnesia
TTITLE17=The Great Divide - Never Could
TTITLE18=Sammy Kershaw with Terri Clark - Love Of My Life
TTITLE19=David Kersh - If I Never Stop Loving You
TTITLE20=Lee Greenwood - Who's That Knockin' On My Heart
EXTD=
EXTT0=
EXTT1=
EXTT2=
EXTT3=
EXTT4=
EXTT5=
EXTT6=
EXTT7=
EXTT8=
EXTT9=
EXTT10=
EXTT11=
EXTT12=
EXTT13=
EXTT14=
EXTT15=Remix
EXTT16=
EXTT17=
EXTT18=
EXTT19=Special Acoustic Performance
EXTT20=
PLAYORDER=
